<svg width="27" height="32" viewBox="0 0 27 32" fill="none" xmlns="http://www.w3.org/2000/svg">
<path d="M13.125 31.6866L3.84417 22.4057C2.00862 20.5701 0.758605 18.2315 0.252187 15.6855C-0.254231 13.1395 0.00569749 10.5005 0.999102 8.10224C1.99251 5.70397 3.67477 3.65414 5.83316 2.21195C7.99155 0.769764 10.5291 0 13.125 0C15.7209 0 18.2585 0.769764 20.4168 2.21195C22.5752 3.65414 24.2575 5.70397 25.2509 8.10224C26.2443 10.5005 26.5042 13.1395 25.9978 15.6855C25.4914 18.2315 24.2414 20.5701 22.4058 22.4057L13.125 31.6866ZM20.3438 20.3436C21.7713 18.9159 22.7435 17.097 23.1373 15.1168C23.5311 13.1366 23.3288 11.0841 22.5562 9.21882C21.7835 7.35355 20.4751 5.75929 18.7963 4.63763C17.1176 3.51597 15.144 2.91729 13.125 2.91729C11.106 2.91729 9.1324 3.51597 7.45367 4.63763C5.77494 5.75929 4.46651 7.35355 3.69383 9.21882C2.92116 11.0841 2.71894 13.1366 3.11275 15.1168C3.50655 17.097 4.4787 18.9159 5.90625 20.3436L13.125 27.5624L20.3438 20.3436ZM13.125 16.0415C12.3515 16.0415 11.6096 15.7343 11.0626 15.1873C10.5156 14.6403 10.2083 13.8984 10.2083 13.1249C10.2083 12.3513 10.5156 11.6095 11.0626 11.0625C11.6096 10.5155 12.3515 10.2082 13.125 10.2082C13.8986 10.2082 14.6404 10.5155 15.1874 11.0625C15.7344 11.6095 16.0417 12.3513 16.0417 13.1249C16.0417 13.8984 15.7344 14.6403 15.1874 15.1873C14.6404 15.7343 13.8986 16.0415 13.125 16.0415Z" fill="white"/>
</svg>
