<svg width="25" height="26" viewBox="0 0 25 26" fill="none" xmlns="http://www.w3.org/2000/svg">
<path d="M23.6812 24.6735C24.3378 23.9898 24.3378 22.9098 23.6812 22.2262L18.4003 16.7278C19.6145 14.989 20.3325 12.8505 20.3325 10.5408C20.3325 4.72875 15.7907 0 10.2075 0C4.62523 0 0.0834961 4.72875 0.0834961 10.5408C0.0834961 16.354 4.62523 21.0817 10.2075 21.0817C12.3238 21.0817 14.2893 20.4024 15.9166 19.2422L21.1331 24.6735C21.8283 25.3973 22.9861 25.3973 23.6812 24.6735V24.6735ZM3.05305 10.5408C3.05305 6.43283 6.26296 3.09075 10.2085 3.09075C14.154 3.09075 17.3639 6.43283 17.3639 10.5408C17.3639 14.6488 14.154 17.9909 10.2085 17.9909C6.26192 17.9909 3.05305 14.6488 3.05305 10.5408Z" fill="white"/>
</svg>
