<svg width="20" height="20" viewBox="0 0 20 20" fill="none" xmlns="http://www.w3.org/2000/svg">
<g clip-path="url(#clip0_8_2864)">
<path d="M19.9844 2.53135C19.8625 3.0047 19.8297 3.10188 19.7156 3.33072C19.6219 3.51881 19.5297 3.66458 19.3984 3.83229C19.3437 3.90125 15.9359 7.33072 11.825 11.4514L4.35156 18.9467L3.71875 19.1144C3.37031 19.2085 3.04063 19.2962 2.98437 19.3119C2.82812 19.3527 1.70625 19.6552 1.60937 19.6818C1.41719 19.732 1.34844 19.7508 0.895312 19.873L0.423438 20L0.2125 20L0 20L-9.31779e-09 19.7868L-1.85671e-08 19.5752L0.126562 19.1019C0.196875 18.8417 0.2625 18.5925 0.273437 18.5502C0.285937 18.5063 0.309375 18.4154 0.328125 18.3464C0.346875 18.2774 0.425 17.9843 0.501562 17.6959C0.579687 17.4075 0.651562 17.1348 0.664062 17.0925C0.675 17.0486 0.75625 16.7461 0.84375 16.4185L1.00156 15.8229L8.61406 8.18809C16.1312 0.648902 16.2281 0.551725 16.4062 0.434169C16.5844 0.316613 16.8734 0.167711 17.0234 0.117555C17.7734 -0.137931 18.5016 0.0313484 19.1484 0.60815C19.5 0.92163 19.7562 1.2978 19.8797 1.68495C19.9328 1.85266 19.9484 1.93103 19.9766 2.16614C20.0016 2.37931 20.0031 2.45768 19.9844 2.53135ZM18.9422 2.89185C18.6328 2.7837 18.2766 2.55486 17.9719 2.26803C17.9094 2.21003 17.8516 2.16301 17.8437 2.16614C17.8375 2.16928 17.2781 2.73511 16.6016 3.42476C15.925 4.11442 15.1547 4.89655 14.8922 5.16458C14.6281 5.43103 13.9453 6.12696 13.375 6.70846C12.8047 7.28997 12.1109 7.9953 11.8359 8.27586C11.5594 8.55643 10.5922 9.53919 9.6875 10.4624C6.72031 13.4843 5.93906 14.279 5.33594 14.8903C3.35781 16.895 3.35937 16.8934 3.32656 16.9702C3.27812 17.0815 3.23437 17.2665 3.23437 17.3574C3.23437 17.4749 3.27188 17.5345 3.39844 17.6238C3.69062 17.8276 3.85 17.8605 4.125 17.7759C4.21094 17.7476 4.34063 17.7179 4.41094 17.7085L4.53906 17.6912L11.6453 10.5658C15.5547 6.64734 18.7844 3.39969 18.8234 3.34953C18.9016 3.24922 19.0625 2.98276 19.0625 2.95298C19.0625 2.94357 19.0078 2.91536 18.9422 2.89185ZM17.4703 1.67868C17.3141 1.43417 17.2281 1.21473 17.1969 0.992162L17.1797 0.862069L17.0797 0.909091C17.025 0.935737 16.9203 0.995298 16.8453 1.04389C16.725 1.12226 15.9187 1.92633 9.42344 8.44044L2.13594 15.7492L2.10781 15.8793C2.07187 16.0423 2.07031 16.2524 2.10312 16.3621C2.15 16.5235 2.29687 16.6254 2.55156 16.6724C2.67031 16.6928 2.99062 16.6912 3.0125 16.6693C3.01719 16.6661 3.0125 16.6536 3.00312 16.6426C2.99062 16.627 3.23906 16.3668 4.04375 15.5486C4.62344 14.9577 5.55938 14.0063 6.12344 13.4326C6.68594 12.8589 7.40469 12.1285 7.71875 11.8103C8.03281 11.4906 8.76719 10.7429 9.35156 10.1489C10.3859 9.09561 10.8359 8.63636 11.9625 7.49216C12.2625 7.18652 13.1875 6.24451 14.0172 5.39969C14.8453 4.55486 15.9781 3.40282 16.5344 2.83699C17.0906 2.27273 17.5453 1.80721 17.5469 1.80407C17.5469 1.80094 17.5125 1.74451 17.4703 1.67868ZM3.92344 18.21C3.6875 18.2257 3.40469 18.1144 3.09844 17.8809C3.01094 17.8135 2.91562 17.6881 2.88906 17.6019C2.84844 17.4702 2.84531 17.1944 2.88281 17.0956C2.89375 17.0721 2.87969 17.069 2.72969 17.069C2.26094 17.069 1.90469 16.8809 1.76562 16.5596C1.74687 16.5157 1.72031 16.4169 1.70469 16.337L1.67969 16.1944L1.40156 17.2382C1.24844 17.8135 1.125 18.29 1.125 18.2994C1.12656 18.3072 1.22188 18.3966 1.33906 18.4953C1.45469 18.594 1.59844 18.7163 1.65781 18.768L1.76562 18.8589L2.8625 18.5658C3.65156 18.3542 3.97031 18.2633 3.99687 18.2398C4.01562 18.2226 4.03125 18.2069 4.03125 18.2053C4.03125 18.2038 3.98281 18.2053 3.92344 18.21Z" fill="white"/>
</g>
<defs>
<clipPath id="clip0_8_2864">
<rect width="20" height="20" fill="white" transform="matrix(-4.37114e-08 -1 -1 4.37114e-08 20 20)"/>
</clipPath>
</defs>
</svg>
