<svg width="18" height="21" viewBox="0 0 18 21" fill="none" xmlns="http://www.w3.org/2000/svg">
<path d="M9 2.84221L4.4625 7.37971C3.56518 8.27713 2.95412 9.42047 2.70658 10.6652C2.45905 11.9099 2.58616 13.2 3.07184 14.3725C3.55752 15.5449 4.37996 16.547 5.43516 17.2521C6.49036 17.9571 7.73093 18.3334 9 18.3334C10.2691 18.3334 11.5096 17.9571 12.5648 17.2521C13.62 16.547 14.4425 15.5449 14.9282 14.3725C15.4138 13.2 15.541 11.9099 15.2934 10.6652C15.0459 9.42047 14.4348 8.27713 13.5375 7.37971L9 2.84221ZM9 0.249878L14.8337 6.08355C15.9874 7.23733 16.7732 8.70734 17.0915 10.3077C17.4098 11.908 17.2464 13.5668 16.622 15.0743C15.9976 16.5818 14.9401 17.8703 13.5834 18.7768C12.2267 19.6833 10.6317 20.1671 9 20.1671C7.36831 20.1671 5.77326 19.6833 4.41656 18.7768C3.05986 17.8703 2.00243 16.5818 1.37801 15.0743C0.753581 13.5668 0.590198 11.908 0.908518 10.3077C1.22684 8.70734 2.01256 7.23733 3.16634 6.08355L9 0.249878V0.249878Z" fill="white"/>
</svg>
